<?xml version="1.0" standalone="no"?>
<!DOCTYPE svg PUBLIC "-//W3C//DTD SVG 20010904//EN"
 "http://www.w3.org/TR/2001/REC-SVG-20010904/DTD/svg10.dtd">
<svg version="1.0" xmlns="http://www.w3.org/2000/svg"
 width="672.000000pt" height="672.000000pt" viewBox="0 0 672.000000 672.000000"
 preserveAspectRatio="xMidYMid meet">
<metadata>
Created by potrace 1.11, written by Peter Selinger 2001-2013
</metadata>
<g transform="translate(0.000000,672.000000) scale(0.100000,-0.100000)"
fill="#000000" stroke="none">
<path d="M3252 6564 c-51 -13 -104 -45 -167 -98 -16 -14 -41 -35 -55 -47 -14
-11 -45 -38 -70 -59 -46 -40 -103 -88 -181 -152 -24 -20 -55 -46 -69 -58 -14
-12 -45 -38 -69 -58 -40 -33 -89 -74 -161 -136 -14 -11 -52 -43 -85 -71 -33
-27 -65 -54 -71 -60 -6 -5 -33 -28 -60 -50 -27 -22 -64 -54 -84 -71 -29 -25
-292 -246 -390 -327 -14 -11 -41 -34 -60 -51 -20 -17 -58 -50 -85 -73 -28 -23
-60 -50 -72 -60 -11 -10 -40 -34 -64 -53 -24 -19 -91 -75 -149 -125 -58 -49
-128 -108 -154 -130 -52 -43 -77 -64 -116 -98 -14 -12 -37 -32 -52 -43 -111
-86 -262 -229 -290 -274 -50 -83 -85 -250 -65 -316 4 -10 9 -34 12 -53 3 -18
18 -61 34 -95 16 -33 44 -114 62 -178 l33 -117 62 62 c55 56 116 113 239 227
22 20 94 81 160 134 66 54 130 106 142 116 12 10 24 16 27 13 3 -4 6 -2 6 4 0
6 28 30 63 54 34 24 67 47 72 51 22 18 185 128 189 128 3 0 25 14 49 30 25 17
48 30 52 30 3 0 26 14 50 30 24 17 47 30 51 30 4 0 29 14 56 30 26 17 55 30
63 30 8 0 15 5 15 10 0 6 4 10 9 10 6 0 47 17 93 38 273 126 552 211 782 238
23 3 68 9 101 13 70 8 267 6 340 -3 28 -4 77 -13 110 -21 33 -8 87 -19 120
-25 226 -42 515 -184 699 -343 63 -55 163 -157 197 -202 13 -16 26 -32 30 -35
3 -3 29 -39 56 -80 66 -98 139 -236 173 -329 28 -77 37 -77 46 -1 2 19 8 55
14 80 5 25 12 72 16 105 3 33 8 71 10 85 5 29 10 82 20 195 10 110 11 626 1
755 -4 58 -9 129 -11 158 -3 30 -6 55 -8 56 -4 3 -177 147 -208 173 -40 34
-65 55 -111 93 -24 19 -56 46 -71 60 -14 14 -46 41 -70 60 -23 19 -70 58 -103
85 -33 28 -107 90 -165 138 -58 48 -116 98 -130 111 -14 12 -65 56 -115 97
-49 41 -96 79 -103 86 -7 7 -34 29 -60 50 -26 21 -52 43 -58 48 -112 102 -179
150 -237 172 -58 21 -171 24 -235 7z"/>
<path d="M5354 4848 c-1 -216 -14 -465 -30 -583 -3 -22 -7 -60 -9 -85 -2 -25
-6 -58 -9 -75 -2 -16 -7 -50 -11 -75 -4 -25 -9 -58 -11 -75 -2 -16 -9 -52 -14
-80 -5 -27 -12 -63 -15 -80 -6 -35 -8 -44 -34 -152 -11 -45 -22 -92 -25 -105
-3 -13 -13 -48 -22 -78 -10 -30 -18 -57 -19 -60 -4 -26 -60 -187 -66 -194 -5
-6 -9 -16 -9 -24 0 -7 -11 -38 -25 -68 -14 -30 -25 -57 -25 -60 0 -6 -68 -154
-80 -174 -5 -8 -19 -35 -31 -60 -81 -162 -245 -386 -380 -519 -116 -115 -122
-121 -209 -177 -41 -26 -84 -56 -94 -66 -11 -10 -26 -18 -33 -18 -7 0 -13 -3
-13 -7 0 -5 -10 -13 -23 -19 -179 -91 -237 -117 -314 -143 -177 -59 -330 -84
-513 -84 -91 0 -194 7 -252 18 -16 3 -38 7 -50 9 -13 2 -43 9 -68 15 -25 7
-52 13 -61 15 -176 43 -440 183 -596 318 -124 107 -284 291 -330 382 -9 17
-19 33 -23 36 -11 9 -89 176 -119 257 -105 285 -125 626 -54 908 8 33 16 65
18 70 10 45 19 72 28 83 5 6 7 12 4 12 -3 0 5 25 19 55 13 31 24 62 24 69 0 7
6 19 14 25 8 6 16 20 19 30 3 13 -19 2 -77 -38 -44 -30 -85 -59 -91 -63 -5 -5
-46 -36 -89 -70 -44 -33 -88 -68 -98 -77 -11 -9 -29 -24 -41 -34 -180 -151
-563 -535 -562 -565 0 -4 8 -34 18 -67 9 -33 22 -76 27 -95 26 -94 82 -291 96
-339 9 -29 18 -63 20 -76 2 -12 12 -48 23 -81 10 -32 27 -93 37 -134 10 -41
23 -78 29 -82 5 -4 7 -8 3 -8 -4 0 -1 -20 6 -45 8 -25 12 -45 9 -45 -3 0 -1
-6 4 -12 6 -7 13 -26 17 -43 15 -67 70 -231 80 -237 6 -4 8 -8 4 -8 -14 0 89
-189 148 -272 80 -110 193 -223 413 -408 101 -85 189 -160 195 -165 6 -6 36
-30 66 -55 58 -48 72 -60 117 -100 15 -14 53 -45 83 -70 30 -25 57 -47 60 -50
3 -3 48 -41 100 -85 52 -44 97 -82 100 -85 3 -3 32 -27 65 -55 33 -27 71 -60
85 -72 29 -26 49 -43 116 -98 103 -85 206 -178 211 -191 9 -24 107 -82 168
-99 43 -13 79 -16 132 -12 102 8 172 42 250 122 35 36 67 65 72 65 5 0 11 3
13 8 2 4 23 23 48 42 25 19 50 39 56 45 6 5 26 22 45 36 49 38 398 315 434
344 17 13 82 64 145 114 63 50 126 100 140 111 14 11 36 29 50 40 14 11 30 23
35 28 6 4 30 23 55 42 24 19 51 41 58 48 8 7 30 25 50 39 272 202 440 408 552
678 13 33 98 317 105 353 2 9 4 17 5 17 1 0 3 7 5 15 1 8 15 58 29 110 15 52
29 102 31 110 2 8 11 40 20 70 9 30 18 66 21 79 3 13 19 71 35 129 17 58 32
113 34 121 2 9 27 99 55 201 28 102 60 219 71 260 11 41 38 136 59 210 35 124
50 182 51 195 0 2 6 20 14 40 9 19 14 38 13 42 -3 12 24 95 38 118 28 47 54
147 58 217 5 135 -41 253 -139 352 -33 34 -69 68 -80 76 -30 23 -269 223 -275
229 -3 4 -30 26 -60 51 -30 25 -68 57 -85 72 -16 16 -32 28 -35 28 -3 0 -5
-73 -6 -162z"/>
<path d="M3308 4604 c-2 -1 -37 -5 -78 -8 -92 -8 -133 -14 -185 -28 -22 -7
-42 -12 -45 -13 -60 -17 -96 -28 -109 -35 -9 -4 -47 -23 -86 -41 -60 -29 -170
-94 -185 -109 -3 -3 -23 -18 -44 -34 -37 -28 -152 -140 -187 -183 -68 -83
-137 -203 -185 -320 -34 -85 -84 -292 -84 -350 0 -15 -1 -62 -3 -103 -1 -41 1
-95 5 -120 4 -25 9 -61 12 -80 2 -19 7 -46 11 -60 3 -14 8 -34 9 -45 4 -23 32
-110 46 -140 58 -129 81 -172 131 -245 93 -136 212 -252 346 -337 196 -123
371 -178 633 -197 14 -1 35 2 47 6 12 4 25 3 28 -3 4 -5 11 -7 16 -3 5 3 31 7
57 9 228 15 505 133 677 287 17 14 42 37 56 50 27 24 140 161 178 215 86 124
170 355 187 516 22 202 -1 400 -68 577 -35 94 -106 230 -139 266 -10 11 -19
24 -19 29 0 4 -30 42 -67 83 -60 67 -96 99 -214 194 -82 66 -347 179 -473 202
-64 12 -262 27 -268 20z m193 -656 c77 -37 136 -98 172 -177 17 -36 21 -66 22
-136 0 -83 -3 -95 -34 -153 -19 -35 -46 -73 -61 -86 -43 -36 -60 -68 -54 -101
4 -17 7 -37 8 -45 1 -8 5 -26 9 -40 4 -14 9 -36 11 -50 3 -14 19 -86 37 -160
36 -151 38 -191 12 -217 -34 -34 -66 -38 -275 -37 -177 1 -210 3 -233 18 -45
29 -49 59 -26 166 19 89 55 240 66 285 3 11 8 43 11 72 6 51 6 52 -44 105 -58
62 -81 104 -97 173 -12 56 -12 69 -1 140 10 65 36 114 88 168 79 81 148 108
264 103 50 -2 86 -10 125 -28z"/>
</g>
</svg>
