<?xml version="1.0" encoding="utf-8"?>
<!-- Generator: Adobe Illustrator 24.3.0, SVG Export Plug-In . SVG Version: 6.00 Build 0)  -->
<svg version="1.1" id="Layer_1" xmlns="http://www.w3.org/2000/svg" xmlns:xlink="http://www.w3.org/1999/xlink" x="0px" y="0px"
	 viewBox="0 0 432.2 504.7" style="enable-background:new 0 0 432.2 504.7;" xml:space="preserve">
<style type="text/css">
	.st0{display:none;}
	.st1{display:inline;}
	.st2{fill:#B0FFF9;}
	.st3{fill:#FFFFFF;}
</style>
<g id="Layer_2_1_" class="st0">
	<rect x="-191.9" y="-36.9" class="st1" width="801.3" height="578.5"/>
</g>
<g id="Layer_1_1_">
	<path class="st2" d="M190.4,12.3l-173.6,146c-14.2,11.9-17.4,32.4-7.5,48.1l5.5,19.6c93.2-94.2,167.4-101.2,197-99.3V3.8
		C204.1,3.5,196.3,6.4,190.4,12.3"/>
	<path class="st2" d="M182.5,372.2c-22.3-5.1-41.8-16-57.4-30.7c-0.2-0.1-0.3-0.3-0.4-0.4c-0.8-0.8-1.6-1.6-2.4-2.4
		c-0.8-0.8-1.6-1.6-2.4-2.4c0,0-0.1-0.1-0.1-0.1c-5.4-5.7-10.4-12.1-14.7-19c-24-38.1-24.5-84.4-5.4-122
		c-29.5,19.4-54.6,43.6-74.8,66.4L49,348c5.9,21,17.9,39.7,34.5,53.8l103.6,87.8c6,8.6,15.4,12.7,24.7,12.4V375.2
		C202.2,375.4,192.3,374.4,182.5,372.2"/>
	<path class="st2" d="M196.2,300.7c-4.8,0-8.3-4.4-7.2-9.1l7.5-32.6c0.6-2.6-0.4-5.3-2.5-7c-6.8-5.7-10.8-14.8-9.2-24.7
		c1.8-11.6,11.5-20.8,23.2-22.1c1.3-0.1,2.6-0.2,3.8-0.1v-48.3c-0.6,0-1.2-0.1-1.8-0.1c-6.2,0.3-12.4,0.9-18.4,1.8
		c-35.7,7-65.8,34.4-74.4,72.1c-6.7,29.5,1.1,58.8,18.7,80.7c18.9,23.3,47.2,35.7,75.9,35v-45.6L196.2,300.7L196.2,300.7
		L196.2,300.7z"/>
	<path class="st2" d="M225.7,128.9c35.2,4.6,68.2,24.3,88.5,56.6c0.8,1.3,1.6,2.6,2.3,3.9c4.5,7.7,8.1,15.8,10.9,24.3
		c8.6-41.2,8-83,4.6-117.1L231.7,12.3c-5.5-5.5-12.7-8.3-19.9-8.5v122.9c9,0.6,13.9,2,13.9,2L225.7,128.9z"/>
	<path class="st2" d="M235,489.6l99.6-79c18.2-14.4,31.3-34.2,37.4-56.5l40.7-147.7c9.8-15.7,6.6-36.2-7.5-48.1L365.7,125
		c3.1,178.5-80.3,224.7-80.3,224.7l-0.1-0.2c-20.8,16-46.5,25.3-73.5,25.7V502C220.6,501.8,229.3,497.7,235,489.6"/>
	<path class="st2" d="M276.7,318.7c4.2-4.6,8.1-9.4,11.8-14.3c20.3-30.2,22.2-70.8,1.6-103.6c-1.7-2.6-3.4-5.1-5.3-7.6
		c-0.7-0.9-1.5-1.9-2.3-2.8c-0.1-0.1-0.2-0.3-0.3-0.4c-12.8-15-30.4-26.2-51.2-30.9c-6.4-1.5-12.8-2.2-19.1-2.3v48.3
		c14.3,0.4,25.8,12.1,25.8,26.5c0,8.2-3.7,15.5-9.6,20.4c-2.1,1.7-3.1,4.4-2.5,7l7.5,32.6c1.1,4.6-2.5,9.1-7.2,9.1h-14v45.6
		c16.6-0.4,33.3-5.1,48.4-14.6C266.3,328,271.8,323.5,276.7,318.7"/>
	<polygon class="st3" points="191.9,24.2 178.1,39 182.5,58.9 164.1,50.3 146.6,60.6 149,40.4 133.8,27 153.8,23.1 161.9,4.5 
		171.7,22.2 	"/>
	<polygon class="st3" points="384.6,385.2 362.6,356.8 326.7,358.8 347,329.1 334,295.6 368.5,305.7 396.3,283 397.4,318.9 
		427.6,338.4 393.8,350.5 	"/>
	<polygon class="st3" points="96.6,426.2 83.4,402.4 56.3,399.8 74.9,379.9 68.9,353.3 93.6,364.8 117.1,350.9 113.8,378 134.2,396 
		107.5,401.2 	"/>
	<polygon class="st3" points="164.5,197.5 150.4,193.4 139,202.7 138.5,188 126.2,180 140,175.1 143.8,160.8 152.8,172.5 
		167.4,171.7 159.2,183.8 	"/>
</g>
</svg>
