<?xml version="1.0" encoding="utf-8"?>
<!-- Generator: Adobe Illustrator 24.3.0, SVG Export Plug-In . SVG Version: 6.00 Build 0)  -->
<svg version="1.1" id="Layer_1" xmlns="http://www.w3.org/2000/svg" xmlns:xlink="http://www.w3.org/1999/xlink" x="0px" y="0px"
	 viewBox="0 0 423.5 504.7" style="enable-background:new 0 0 423.5 504.7;" xml:space="preserve">
<style type="text/css">
	.st0{display:none;}
	.st1{display:inline;}
	.st2{fill:#41A31C;}
	.st3{fill:#1B55C9;}
</style>
<g id="Layer_2_1_" class="st0">
	<rect x="-191.9" y="-36.9" class="st1" width="801.3" height="578.5"/>
</g>
<g>
	<path class="st2" d="M211.8,126.6L211.8,126.6c9,0.6,13.9,2,13.9,2l-0.1,0.3c35.2,4.6,68.2,24.3,88.5,56.6c0.8,1.3,1.6,2.6,2.3,3.9
		c4.5,7.7,8.1,15.8,10.9,24.3c8.6-41.2,8-83,4.6-117.1L231.7,12.3c-5.5-5.5-12.7-8.3-19.9-8.5v0c-7.7-0.2-15.5,2.6-21.4,8.5
		l-173.6,146c-14.2,11.9-17.4,32.4-7.5,48.1l5.5,19.6C108,131.8,182.2,124.8,211.8,126.6z"/>
	<path class="st2" d="M405.2,158.3L365.7,125c3.1,178.5-80.3,224.7-80.3,224.7l-0.1-0.2c-20.8,16-46.5,25.3-73.5,25.7v0
		c-9.7,0.2-19.5-0.8-29.4-3c-22.3-5.1-41.8-16-57.4-30.7c-0.1-0.1-0.3-0.3-0.4-0.4c-0.8-0.8-1.6-1.6-2.4-2.4
		c-0.8-0.8-1.6-1.6-2.4-2.4c0,0-0.1-0.1-0.1-0.1c-5.4-5.7-10.4-12.1-14.7-19c-24-38.1-24.5-84.4-5.4-122
		c-29.5,19.4-54.6,43.6-74.8,66.4L49,348c5.9,21,17.9,39.7,34.5,53.8l103.6,87.8c6,8.6,15.4,12.7,24.7,12.4v0
		c8.8-0.2,17.5-4.4,23.2-12.4l99.6-79c18.2-14.4,31.3-34.2,37.4-56.5l40.7-147.7C422.6,190.7,419.4,170.2,405.2,158.3z"/>
	<path class="st2" d="M284.7,193.2c-0.7-0.9-1.5-1.9-2.3-2.8c-0.1-0.1-0.2-0.3-0.3-0.4c-12.8-15-30.4-26.2-51.2-30.9
		c-6.4-1.5-12.8-2.2-19.1-2.3v0c-0.6,0-1.2-0.1-1.8-0.1c-6.2,0.3-12.4,0.9-18.4,1.8c-35.7,7-65.8,34.4-74.4,72.1
		c-6.7,29.5,1.1,58.8,18.7,80.7c18.9,23.3,47.2,35.7,75.9,35v0c16.6-0.4,33.3-5.1,48.4-14.6c6.1-3.8,11.6-8.2,16.5-13.1
		c4.2-4.6,8.1-9.4,11.8-14.3c20.3-30.2,22.2-70.8,1.6-103.6C288.4,198.2,286.6,195.7,284.7,193.2z M225.6,259l7.5,32.6
		c1.1,4.6-2.5,9.1-7.2,9.1h-14h0h-15.6v0c-4.8,0-8.3-4.4-7.2-9.1l7.5-32.6c0.6-2.6-0.4-5.3-2.5-7c-6.8-5.7-10.8-14.8-9.2-24.7
		c1.8-11.6,11.5-20.8,23.2-22.1c1.3-0.1,2.6-0.2,3.8-0.1v0c14.3,0.4,25.8,12.1,25.8,26.5c0,8.2-3.7,15.5-9.6,20.4
		C226,253.7,225,256.4,225.6,259z"/>
</g>
<g>
	<path class="st3" d="M231.7,12.3c-5.5-5.5-12.7-8.3-19.9-8.5v0c-7.7-0.2-15.5,2.6-21.4,8.5l-173.6,146
		c-14.2,11.9-17.4,32.4-7.5,48.1l5.5,19.6c93.2-94.2,167.4-101.2,197-99.3v0c9,0.6,13.9,2,13.9,2l-0.1,0.3c8,1.1,15.8,2.9,23.4,5.4
		l33.9-79L231.7,12.3z"/>
	<path class="st3" d="M125.1,341.5c-0.1-0.1-0.3-0.3-0.4-0.4c-0.8-0.8-1.6-1.6-2.4-2.4c-0.8-0.8-1.6-1.6-2.4-2.4
		c0,0-0.1-0.1-0.1-0.1c-5.4-5.7-10.4-12.1-14.7-19c-24-38.1-24.5-84.4-5.4-122c-29.5,19.4-54.6,43.6-74.8,66.4L49,348
		c5.9,21,17.9,39.7,34.5,53.8l37.4,31.7l31.1-72.6C142.1,355.6,133.1,349.1,125.1,341.5z"/>
	<path class="st3" d="M194,252c-6.8-5.7-10.8-14.8-9.2-24.7c1.8-11.6,11.5-20.8,23.2-22.1c1.3-0.1,2.6-0.2,3.8-0.1v0
		c2.3,0.1,4.4,0.4,6.5,1l19.4-45.2c-2.2-0.7-4.5-1.3-6.8-1.8c-6.4-1.5-12.8-2.2-19.1-2.3v0c-0.6,0-1.2-0.1-1.8-0.1
		c-6.2,0.3-12.4,0.9-18.4,1.8c-35.7,7-65.8,34.4-74.4,72.1c-6.7,29.5,1.1,58.8,18.7,80.7c7.8,9.6,17.1,17.3,27.5,23.1l33.2-77.6
		C196.4,255,195.5,253.2,194,252z"/>
</g>
</svg>
