<?xml version="1.0" encoding="utf-8"?>
<!-- Generator: Adobe Illustrator 16.0.0, SVG Export Plug-In . SVG Version: 6.00 Build 0)  -->
<!DOCTYPE svg PUBLIC "-//W3C//DTD SVG 1.1//EN" "http://www.w3.org/Graphics/SVG/1.1/DTD/svg11.dtd">
<svg version="1.1" id="Layer_1" xmlns="http://www.w3.org/2000/svg" xmlns:xlink="http://www.w3.org/1999/xlink" x="0px" y="0px"
	 width="500px" height="500px" viewBox="0 0 500 500" enable-background="new 0 0 500 500" xml:space="preserve">
<g id="Layer_1_1_" display="none">
	
		<image display="inline" overflow="visible" enable-background="new    " width="48" height="20" xlink:href="CA481851.jpeg"  transform="matrix(0.5209 0 0 0.4892 279.7461 287.7461)">
	</image>
</g>
<g id="Layer_2">
</g>
<g id="Layer_3">
	<g display="none">
		<polyline display="inline" fill="none" stroke="#FBB040" stroke-width="20" stroke-miterlimit="10" points="11.105,333.016 
			167.484,167.622 315.43,333.016 484.457,155.075 		"/>
	</g>
	<g display="none">
		
			<line display="inline" fill="none" stroke="#FBB040" stroke-width="20" stroke-miterlimit="10" x1="491.254" y1="157.075" x2="349.921" y2="157.075"/>
		
			<line display="inline" fill="none" stroke="#FBB040" stroke-width="20" stroke-miterlimit="10" x1="481.587" y1="288.742" x2="481.587" y2="147.408"/>
	</g>
	
		<image display="none" overflow="visible" enable-background="new    " width="56" height="33" xlink:href="CA481853.jpeg"  transform="matrix(7.195 0 0 7.283 54.3306 106.6187)">
	</image>
</g>
<g id="Layer_4" display="none">
	<g display="inline" opacity="0.5">
		<path fill="none" stroke="#FBB040" stroke-width="19" stroke-miterlimit="10" d="M426.182,327.023
			c0,7.233-5.861,13.096-13.095,13.096H90.812c-7.232,0-13.095-5.861-13.095-13.096V133.514c0-7.231,5.862-13.095,13.095-13.095
			h322.275c7.232,0,13.095,5.863,13.095,13.095V327.023L426.182,327.023z"/>
		<polyline fill="none" stroke="#FBB040" stroke-width="19" stroke-miterlimit="10" points="165.197,234.998 218.667,291.016 
			338.701,165.523 		"/>
		<rect x="32.978" y="356.488" fill="#FBB040" width="437.943" height="15.494"/>
	</g>
</g>
<g id="Layer_5" display="none">
	
		<image display="inline" overflow="visible" enable-background="new    " width="41" height="29" xlink:href="CA481851.jpeg"  transform="matrix(10.2879 0 0 10.1477 45.7681 95.4712)">
	</image>
</g>
<g id="Layer_6">
	<g>
		<path fill="none" stroke="#FF7E00" stroke-width="19" stroke-miterlimit="10" d="M450.254,190.836
			c0-31.895-25.854-57.75-57.75-57.75c-31.895,0-57.75,25.855-57.75,57.75c0,20.142,10.317,37.865,25.948,48.199l-19.948,109.051
			h104.5l-20.058-109.649C440.327,228.023,450.254,210.593,450.254,190.836z"/>
		<circle fill="none" stroke="#FF7E00" stroke-width="19" stroke-miterlimit="10" cx="190.062" cy="135.777" r="33.308"/>
		<circle fill="none" stroke="#FF7E00" stroke-width="19" stroke-miterlimit="10" cx="74.062" cy="195.777" r="33.308"/>
		<circle fill="none" stroke="#FF7E00" stroke-width="19" stroke-miterlimit="10" cx="142.062" cy="362.777" r="33.308"/>
		<polyline fill="none" stroke="#FF7E00" stroke-width="19" stroke-miterlimit="10" points="322.754,301.586 269.254,301.586 
			269.254,362.777 175.37,362.777 		"/>
		<polyline fill="none" stroke="#FF7E00" stroke-width="19" stroke-miterlimit="10" points="322.754,262.586 210.754,262.586 
			210.754,195.777 108.754,195.777 		"/>
		<polyline fill="none" stroke="#FF7E00" stroke-width="19" stroke-miterlimit="10" points="302.754,175.086 269.254,175.086 
			269.254,135.777 223.37,135.777 		"/>
	</g>
</g>
</svg>
