<?xml version="1.0" encoding="utf-8"?>
<!-- Generator: Adobe Illustrator 16.0.0, SVG Export Plug-In . SVG Version: 6.00 Build 0)  -->
<!DOCTYPE svg PUBLIC "-//W3C//DTD SVG 1.1//EN" "http://www.w3.org/Graphics/SVG/1.1/DTD/svg11.dtd">
<svg version="1.1" id="Layer_1" xmlns="http://www.w3.org/2000/svg" xmlns:xlink="http://www.w3.org/1999/xlink" x="0px" y="0px"
	 width="500px" height="500px" viewBox="0 0 500 500" enable-background="new 0 0 500 500" xml:space="preserve">
<g id="Layer_1_1_" display="none">
	
		<image display="inline" overflow="visible" enable-background="new    " width="48" height="20" xlink:href="C3B19C3D.jpeg"  transform="matrix(0.5209 0 0 0.4892 279.7461 287.7461)">
	</image>
</g>
<g id="Layer_2" display="none">
</g>
<g id="Layer_3" display="none">
	<g display="inline">
		<polyline fill="none" stroke="#FBB040" stroke-width="20" stroke-miterlimit="10" points="11.105,333.016 167.484,167.622 
			315.43,333.016 484.457,155.075 		"/>
	</g>
	<g display="inline">
		
			<line fill="none" stroke="#FBB040" stroke-width="20" stroke-miterlimit="10" x1="491.254" y1="157.075" x2="349.921" y2="157.075"/>
		
			<line fill="none" stroke="#FBB040" stroke-width="20" stroke-miterlimit="10" x1="481.587" y1="288.742" x2="481.587" y2="147.408"/>
	</g>
	
		<image display="inline" overflow="visible" enable-background="new    " width="30" height="20" xlink:href="C3B19C3F.jpeg"  transform="matrix(13.4307 0 0 12.017 54.334 106.6138)">
	</image>
</g>
<g id="Layer_4" display="none">
	<g display="inline" opacity="0.5">
		<path fill="none" stroke="#FBB040" stroke-width="19" stroke-miterlimit="10" d="M426.182,327.023
			c0,7.233-5.861,13.096-13.095,13.096H90.812c-7.232,0-13.095-5.861-13.095-13.096V133.514c0-7.231,5.862-13.095,13.095-13.095
			h322.275c7.232,0,13.095,5.863,13.095,13.095V327.023L426.182,327.023z"/>
		<polyline fill="none" stroke="#FBB040" stroke-width="19" stroke-miterlimit="10" points="165.197,234.998 218.667,291.016 
			338.701,165.523 		"/>
		<rect x="32.978" y="356.488" fill="#FBB040" width="437.943" height="15.494"/>
	</g>
</g>
<g id="Layer_5" display="none">
	
		<image display="inline" overflow="visible" enable-background="new    " width="41" height="29" xlink:href="C3B19C3D.jpeg"  transform="matrix(10.2879 0 0 10.1477 45.7681 95.4712)">
	</image>
</g>
<g id="Layer_6" display="none">
	<g display="inline">
		<path fill="none" stroke="#FBB040" stroke-width="19" stroke-miterlimit="10" d="M450.254,190.836
			c0-31.895-25.854-57.75-57.75-57.75c-31.895,0-57.75,25.855-57.75,57.75c0,20.142,10.317,37.865,25.948,48.199l-19.948,109.051
			h104.5l-20.058-109.649C440.327,228.023,450.254,210.593,450.254,190.836z"/>
		<circle fill="none" stroke="#FBB040" stroke-width="19" stroke-miterlimit="10" cx="190.062" cy="135.777" r="33.308"/>
		<circle fill="none" stroke="#FBB040" stroke-width="19" stroke-miterlimit="10" cx="74.062" cy="195.777" r="33.308"/>
		<circle fill="none" stroke="#FBB040" stroke-width="19" stroke-miterlimit="10" cx="142.062" cy="362.777" r="33.308"/>
		<polyline fill="none" stroke="#FBB040" stroke-width="19" stroke-miterlimit="10" points="322.754,301.586 269.254,301.586 
			269.254,362.777 175.37,362.777 		"/>
		<polyline fill="none" stroke="#FBB040" stroke-width="19" stroke-miterlimit="10" points="322.754,262.586 210.754,262.586 
			210.754,195.777 108.754,195.777 		"/>
		<polyline fill="none" stroke="#FBB040" stroke-width="19" stroke-miterlimit="10" points="302.754,175.086 269.254,175.086 
			269.254,135.777 223.37,135.777 		"/>
	</g>
</g>
<g id="Layer_7" display="none">
	<g display="inline">
		<path fill="none" stroke="#FBB040" stroke-width="19" stroke-miterlimit="10" d="M362.371,386.182c0,4.811,0,9.19,0,9.19
			s-4.813,0-9.192,0H142.28c-5.076,0-9.191-4.115-9.191-9.19v-272.14c0-5.076,4.115-9.191,9.191-9.191h210.898
			c4.598,0,9.192,0,9.192,0v9.191L362.371,386.182"/>
		
			<line fill="none" stroke="#FBB040" stroke-width="19" stroke-miterlimit="10" x1="361.669" y1="344.816" x2="132.387" y2="344.816"/>
		<g>
			<circle fill="none" stroke="#FBB040" stroke-width="19" stroke-miterlimit="10" cx="245.05" cy="277.667" r="21.063"/>
			
				<rect x="266.114" y="180.005" fill="none" stroke="#FBB040" stroke-width="19" stroke-miterlimit="10" width="0" height="97.662"/>
			<polygon fill="none" stroke="#FBB040" stroke-width="19" stroke-miterlimit="10" points="232.411,187.282 271.475,187.282 
				271.475,187.282 			"/>
			<polygon fill="none" stroke="#FBB040" stroke-width="19" stroke-miterlimit="10" points="232.411,208.729 271.475,208.729 
				271.475,208.729 			"/>
		</g>
	</g>
</g>
<g id="Layer_8" display="none">
	<g display="inline">
		<path fill="none" stroke="#FBB040" stroke-width="19" stroke-miterlimit="10" d="M422.957,125.753h-124.77
			c-5.891,0-10.662,4.774-10.662,10.662v27.544H81.447c-5.563,0-10.073,4.3-10.073,9.603V371.15c0,5.303,4.511,9.603,10.073,9.603
			h342.098c5.563,0,10.073-4.3,10.073-9.603V199.203v-25.642v-37.146C433.618,130.527,428.845,125.753,422.957,125.753z"/>
		<polygon fill="none" stroke="#FBB040" stroke-width="19" stroke-miterlimit="10" points="256.131,210.753 206.671,260.213 
			256.131,333.366 305.887,255.497 		"/>
	</g>
	
		<image display="inline" overflow="visible" enable-background="new    " width="42" height="36" xlink:href="C3B19C3B.jpeg"  transform="matrix(8.9329 0 0 8.8584 65.9971 89.8237)">
	</image>
</g>
<g id="Layer_9">
	<polygon fill="#FF7E00" points="418.587,408.729 88.592,408.729 66,379.753 441.179,379.753 	"/>
	<path fill="none" stroke="#FF7E00" stroke-width="19" stroke-miterlimit="10" d="M360.587,338.42c0,6.627-5.636,12-12.588,12
		H159.175c-6.952,0-12.588-5.373-12.588-12V221.086c0-6.627,5.636-12,12.588-12h188.824c6.952,0,12.588,5.373,12.588,12V338.42
		L360.587,338.42z"/>
	<path fill="none" stroke="#FF7E00" stroke-width="19" stroke-miterlimit="10" d="M307.254,155.086V115.77
		c0-6.268-5.476-11.35-12.232-11.35h-80.868c-6.756,0-12.232,5.082-12.232,11.35v81.967c0,6.268,5.477,11.35,12.232,11.35h80.868"/>
</g>
</svg>
