<?xml version="1.0" encoding="utf-8"?>
<!-- Generator: Adobe Illustrator 16.0.0, SVG Export Plug-In . SVG Version: 6.00 Build 0)  -->
<!DOCTYPE svg PUBLIC "-//W3C//DTD SVG 1.1//EN" "http://www.w3.org/Graphics/SVG/1.1/DTD/svg11.dtd">
<svg version="1.1" id="Layer_1" xmlns="http://www.w3.org/2000/svg" xmlns:xlink="http://www.w3.org/1999/xlink" x="0px" y="0px"
	 width="423.49px" height="504.699px" viewBox="0 0 423.49 504.699" enable-background="new 0 0 423.49 504.699"
	 xml:space="preserve">
<g id="Layer_2" display="none">
	<rect x="-191.946" y="-36.913" display="inline" width="801.343" height="578.524"/>
</g>
<g id="Layer_1_1_">
	<path fill="#8C9093" d="M190.392,12.264L16.842,158.256C2.679,170.17-0.535,190.695,9.306,206.368l5.489,19.585
		c93.209-94.181,167.417-101.184,197.036-99.303V3.753C204.097,3.542,196.296,6.359,190.392,12.264"/>
	<path fill="#8C9093" d="M182.458,372.189c-22.324-5.066-41.837-15.95-57.366-30.66c-0.15-0.145-0.301-0.265-0.445-0.408
		c-0.819-0.783-1.613-1.59-2.408-2.396c-0.807-0.795-1.607-1.602-2.396-2.432c-0.03-0.037-0.054-0.062-0.084-0.098
		c-5.411-5.729-10.358-12.063-14.716-18.982C81.052,279.089,80.54,232.77,99.596,195.26c-29.457,19.396-54.64,43.559-74.779,66.447
		l24.196,86.312c5.88,20.97,17.906,39.713,34.524,53.797l103.562,87.769c5.983,8.57,15.408,12.689,24.732,12.447V375.235
		C202.152,375.392,192.306,374.44,182.458,372.189"/>
	<path fill="#8C9093" d="M196.218,300.708c-4.779,0-8.306-4.441-7.235-9.101l7.542-32.597c0.608-2.617-0.439-5.278-2.498-6.993
		c-6.843-5.712-10.78-14.779-9.215-24.698c1.83-11.587,11.532-20.79,23.185-22.083c1.3-0.142,2.576-0.16,3.834-0.121V156.77
		c-0.602-0.012-1.204-0.051-1.8-0.051c-6.242,0.298-12.381,0.875-18.424,1.763c-35.734,7.021-65.769,34.356-74.37,72.149
		c-6.705,29.472,1.107,58.847,18.695,80.684c18.912,23.317,47.23,35.668,75.899,35.042V300.71h-15.613V300.708z"/>
	<path fill="#999CA0" d="M225.687,128.941c35.205,4.646,68.17,24.307,88.516,56.641c0.806,1.276,1.559,2.582,2.311,3.876
		c4.479,7.674,8.149,15.824,10.906,24.322c8.565-41.238,7.999-83.022,4.629-117.098L231.692,12.261
		c-5.5-5.499-12.65-8.318-19.861-8.511v122.897c9.04,0.575,13.934,1.974,13.934,1.974L225.687,128.941z"/>
	<path fill="#999CA0" d="M234.985,489.595l99.644-78.969c18.165-14.385,31.28-34.188,37.438-56.529l40.718-147.729
		c9.835-15.673,6.621-36.204-7.541-48.109l-39.558-33.278c3.059,178.485-80.269,224.687-80.269,224.687l-0.108-0.168
		c-20.765,15.998-46.466,25.303-73.479,25.736v126.795C220.631,501.789,229.34,497.671,234.985,489.595"/>
	<path fill="#999CA0" d="M276.673,318.682c4.201-4.623,8.139-9.378,11.785-14.276c20.296-30.24,22.21-70.805,1.564-103.607
		c-1.662-2.63-3.426-5.14-5.291-7.557c-0.739-0.942-1.498-1.877-2.27-2.798c-0.113-0.133-0.223-0.277-0.343-0.418
		c-12.82-15.039-30.427-26.225-51.179-30.946c-6.404-1.454-12.797-2.176-19.116-2.312v48.347
		c14.313,0.424,25.791,12.122,25.791,26.525c0,8.204-3.726,15.523-9.564,20.386c-2.063,1.722-3.1,4.37-2.491,6.981l7.541,32.613
		c1.071,4.646-2.455,9.09-7.233,9.09h-14.042v45.646c16.605-0.361,33.32-5.08,48.396-14.566
		C266.302,327.975,271.785,323.544,276.673,318.682"/>
</g>
</svg>
