<?xml version="1.0" encoding="utf-8"?>
<!-- Generator: Adobe Illustrator 24.3.0, SVG Export Plug-In . SVG Version: 6.00 Build 0)  -->
<svg version="1.1" id="Layer_1" xmlns="http://www.w3.org/2000/svg" xmlns:xlink="http://www.w3.org/1999/xlink" x="0px" y="0px"
	 viewBox="0 0 266.1 68.1" style="enable-background:new 0 0 266.1 68.1;" xml:space="preserve">
<style type="text/css">
	.st0{fill:#8056A3;}
	.st1{fill:#8862AA;}
</style>
<g>
	<path class="st0" d="M26,4.1L3.9,22.7c-1.8,1.5-2.2,4.1-1,6.1l0.7,2.5c11.8-12,21.3-12.9,25-12.6V3C27.7,3,26.8,3.4,26,4.1"/>
	<path class="st0" d="M25,49.8c-2.8-0.6-5.3-2-7.3-3.9c0,0,0,0-0.1-0.1s-0.2-0.2-0.3-0.3c-0.1-0.1-0.2-0.2-0.3-0.3l0,0
		c-0.7-0.7-1.3-1.5-1.9-2.4C12.1,38,12,32,14.4,27.3c-3.7,2.5-6.9,5.5-9.5,8.4l3.1,11c0.7,2.7,2.3,5,4.4,6.8l13.2,11.2
		c0.8,1.1,2,1.6,3.1,1.6V50.2C27.5,50.3,26.2,50,25,49.8"/>
	<path class="st0" d="M26.7,40.8c-0.6,0-1.1-0.6-0.9-1.2l1-4.1c0.1-0.3-0.1-0.7-0.3-0.9c-0.9-0.7-1.4-1.9-1.2-3.1
		c0.2-1.5,1.5-2.6,2.9-2.8c0.2,0,0.3,0,0.5,0v-6.2c-0.1,0-0.2,0-0.2,0c-0.8,0-1.6,0.1-2.3,0.2c-4.5,0.9-8.4,4.4-9.5,9.2
		c-0.9,3.7,0.1,7.5,2.4,10.3c2.4,3,6,4.5,9.6,4.5v-5.8L26.7,40.8L26.7,40.8z"/>
	<path class="st1" d="M30.5,18.9C35,19.5,39.2,22,41.7,26c0.1,0.2,0.2,0.3,0.3,0.5c0.6,1,1,2,1.4,3.1c1.1-5.2,1-10.6,0.6-14.9
		L31.3,4.1C30.6,3.4,29.7,3,28.8,3v15.6C29.9,18.7,30.5,18.9,30.5,18.9L30.5,18.9z"/>
	<path class="st1" d="M31.7,64.8l12.7-10c2.3-1.8,4-4.3,4.8-7.2l5.2-18.8c1.2-2,0.8-4.6-1-6.1l-5-4.2C48.8,41.2,38.2,47,38.2,47l0,0
		c-2.6,2-5.9,3.2-9.3,3.3v16.1C29.8,66.3,31,65.8,31.7,64.8"/>
	<path class="st1" d="M37,43c0.5-0.6,1-1.2,1.5-1.8c2.6-3.8,2.8-9,0.2-13.2c-0.2-0.3-0.4-0.7-0.7-1c-0.1-0.1-0.2-0.2-0.3-0.4
		c0,0,0,0,0-0.1c-1.6-1.9-3.9-3.3-6.5-3.9c-0.8-0.2-1.6-0.3-2.4-0.3v6.1c1.8,0.1,3.3,1.5,3.3,3.4c0,1-0.5,2-1.2,2.6
		c-0.3,0.2-0.4,0.6-0.3,0.9l1,4.1c0.1,0.6-0.3,1.2-0.9,1.2h-1.8v5.8c2.1,0,4.2-0.6,6.1-1.9C35.6,44.2,36.3,43.7,37,43"/>
</g>
<g>
	<path class="st1" d="M83,46.8c-1.3,0.6-3.6,1.1-6.5,1.1c-6.5,0-11-4-11-10.5c0-5.6,2.5-9.9,6.3-12.4c2.6-1.8,5.6-2.6,9.1-2.6
		c2.7,0,4.7,0.6,5.4,1.1l-1.4,4.3c-0.7-0.4-2.4-0.8-4.5-0.8s-4.2,0.7-5.7,1.9c-2.1,1.7-3.4,4.5-3.4,8c0,3.9,2.2,6.6,6.6,6.6
		c1.7,0,3.5-0.3,4.7-0.8L83,46.8z"/>
	<path class="st1" d="M85.6,47.5l4.9-26.1h5.3l-2,10.4h0.1c1.5-1.7,3.3-2.7,5.7-2.7c2.8,0,4.5,1.8,4.5,4.9c0,0.8-0.1,2.2-0.3,3.2
		l-1.9,10.3h-5.3l1.8-9.9c0.1-0.7,0.3-1.5,0.3-2.2c0-1.2-0.5-2-1.8-2c-1.8,0-3.7,2.2-4.4,5.9l-1.6,8.2H85.6z"/>
	<path class="st1" d="M118.1,47.5c0-1.1,0.1-2.3,0.3-3.6h-0.1c-1.7,3-3.9,4-6,4c-3.2,0-5.4-2.5-5.4-6.3c0-6.1,4-12.5,12.9-12.5
		c2.1,0,4.4,0.4,6,0.9l-1.9,9.4c-0.4,2.3-0.8,5.8-0.7,8.1H118.1L118.1,47.5z M119.6,33.3c-0.4-0.1-0.9-0.1-1.4-0.1
		c-3.4,0-5.9,4.2-5.9,7.5c0,1.8,0.7,3,2.2,3c1.6,0,3.5-1.8,4.3-6.2L119.6,33.3z"/>
	<path class="st1" d="M126.9,47.5l2.3-12.1c0.4-2.3,0.7-4.3,1-5.8h4.7l-0.4,3h0.1c1.7-2.4,3.9-3.4,6.3-3.4c2.9,0,4.6,1.8,4.6,4.9
		c0,0.8-0.1,2.2-0.3,3.1l-2,10.4h-5.3l1.9-10c0.1-0.6,0.2-1.4,0.2-2c0-1.3-0.4-2.1-1.8-2.1c-1.7,0-3.8,2.2-4.5,6.1l-1.5,8
		L126.9,47.5L126.9,47.5z"/>
	<path class="st1" d="M147.6,47.5l2.3-12.1c0.4-2.3,0.7-4.3,1-5.8h4.7l-0.4,3h0.1c1.7-2.4,3.9-3.4,6.3-3.4c2.9,0,4.6,1.8,4.6,4.9
		c0,0.8-0.1,2.2-0.3,3.1l-2,10.4h-5.3l1.9-10c0.1-0.6,0.2-1.4,0.2-2c0-1.3-0.4-2.1-1.8-2.1c-1.7,0-3.8,2.2-4.5,6.1l-1.5,8
		L147.6,47.5L147.6,47.5z"/>
	<path class="st1" d="M183.3,46.5c-2.1,1.1-4.7,1.4-6.7,1.4c-5.1,0-7.8-2.9-7.8-7.6c0-5.5,4-11.2,10.5-11.2c3.6,0,6.3,2,6.3,5.4
		c0,4.6-4.4,6.3-11.7,6.1c0,0.5,0.2,1.3,0.6,1.8c0.7,0.9,1.9,1.4,3.5,1.4c1.9,0,3.6-0.4,5-1.1L183.3,46.5z M178.6,33
		c-2.5,0-3.9,2-4.2,3.7c4.1,0,6.2-0.6,6.2-2.2C180.6,33.7,179.9,33,178.6,33"/>
	<polygon class="st1" points="186.7,47.5 191.7,21.4 197,21.4 192,47.5 	"/>
	<polygon class="st1" points="207.1,36 206.4,39.8 196.9,39.8 197.6,36 	"/>
	<path class="st1" d="M209.4,41.8c1.5,0.9,3.6,1.6,5.8,1.6c2.1,0,3.9-1,3.9-2.9c0-1.4-1.1-2.3-3.3-3.5c-2.6-1.4-5.1-3.3-5.1-6.6
		c0-5,4.4-8.1,9.8-8.1c3,0,4.8,0.7,5.8,1.3l-1.7,4.4c-0.8-0.4-2.6-1.1-4.6-1.1c-2.5,0-3.8,1.3-3.8,2.6c0,1.4,1.5,2.3,3.6,3.5
		c3,1.6,4.9,3.6,4.9,6.5c0,5.5-4.6,8.3-10.1,8.3c-3.5,0-5.9-0.9-7.1-1.8L209.4,41.8z"/>
	<path class="st1" d="M242.2,46.5c-2.1,1.1-4.7,1.4-6.7,1.4c-5.1,0-7.8-2.9-7.8-7.6c0-5.5,4-11.2,10.5-11.2c3.6,0,6.3,2,6.3,5.4
		c0,4.6-4.5,6.3-11.7,6.1c0,0.5,0.2,1.3,0.6,1.8c0.7,0.9,1.9,1.4,3.5,1.4c1.9,0,3.6-0.4,5-1.1L242.2,46.5z M237.5,33
		c-2.5,0-3.9,2-4.2,3.7c4.1,0,6.2-0.6,6.2-2.2C239.5,33.7,238.7,33,237.5,33"/>
	<path class="st1" d="M259,47c-1.1,0.6-3,0.9-5.1,0.9c-4.5,0-7.6-2.7-7.6-7.4c0-6.4,4.9-11.4,11.7-11.4c1.5,0,2.9,0.3,3.6,0.6
		l-1.3,4c-0.6-0.3-1.4-0.4-2.4-0.4c-3.8,0-6.1,3.2-6.1,6.6c0,2.5,1.5,3.7,3.5,3.7c1.5,0,2.6-0.4,3.6-0.7L259,47z"/>
</g>
</svg>
